<?xml version="1.0" standalone="no"?>
<!DOCTYPE svg PUBLIC "-//W3C//DTD SVG 20010904//EN"
 "http://www.w3.org/TR/2001/REC-SVG-20010904/DTD/svg10.dtd">
<svg version="1.0" xmlns="http://www.w3.org/2000/svg"
 width="200.000000pt" height="200.000000pt" viewBox="0 0 200.000000 200.000000"
 preserveAspectRatio="xMidYMid meet">
<metadata>
Created by potrace 1.11, written by Peter Selinger 2001-2013
</metadata>
<g transform="translate(0.000000,200.000000) scale(0.100000,-0.100000)"
fill="#000000" stroke="none">
<path d="M1739 1896 c-3 -3 -27 -8 -54 -11 -81 -11 -273 -73 -373 -120 -221
-105 -372 -246 -436 -410 -21 -53 -42 -153 -41 -190 1 -29 -5 -24 -104 75 -58
58 -131 122 -162 142 -165 108 -382 181 -409 138 -14 -23 -31 -108 -37 -186
-16 -208 79 -393 253 -490 95 -53 191 -81 340 -99 45 -5 68 10 62 41 -3 19
-30 29 -104 37 -133 15 -299 95 -362 175 -85 108 -116 252 -88 411 8 41 9 43
38 37 49 -10 195 -82 261 -130 130 -92 240 -220 315 -364 41 -79 63 -99 95
-86 24 9 27 28 11 89 -20 77 -24 217 -8 292 38 184 174 335 399 443 132 64
309 120 390 124 34 2 59 -146 59 -354 0 -162 -15 -242 -66 -345 -92 -187 -236
-286 -498 -341 -14 -3 -77 -7 -140 -9 l-115 -5 -37 -41 c-44 -48 -80 -122 -98
-198 -23 -98 4 -362 42 -408 6 -7 23 -13 39 -13 37 0 43 23 25 96 -24 93 -26
114 -26 204 0 98 18 170 62 241 l30 49 56 0 c69 1 111 6 221 27 237 45 428
178 518 363 62 124 76 197 77 375 1 129 -5 202 -19 274 -17 87 -38 157 -48
163 -13 8 -61 11 -68 4z"/>
<path d="M1455 1536 c-101 -84 -126 -110 -202 -202 -83 -100 -173 -277 -173
-339 0 -24 23 -43 48 -39 6 1 16 2 21 3 5 0 19 30 30 66 53 162 201 357 372
487 68 52 75 62 63 92 -14 36 -58 17 -159 -68z"/>
<path d="M328 1279 c-10 -5 -18 -17 -18 -25 0 -26 81 -136 150 -205 99 -98
189 -132 203 -78 4 14 -10 29 -58 63 -64 46 -137 124 -194 209 -32 47 -51 55
-83 36z"/>
</g>
</svg>
